<svg xmlns="http://www.w3.org/2000/svg" viewBox="0 0 480 480"><defs><style>.a{fill:#fff;}.b{fill:#232d55;}.c{fill:#1eaadc;}.d{fill:#0a4178;}.e{fill:#007d50;}.f{fill:#ffdc05;}.g{fill:#919191;}</style></defs><title>talao_symbole_avatar</title><rect class="a" width="480" height="480" rx="240" ry="240"/><rect class="b" x="112.01" y="112.01" width="85.33" height="85.33"/><polygon class="c" points="368.01 112.01 197.34 112.01 197.34 282.68 282.68 282.68 282.68 197.34 368.01 197.34 368.01 112.01"/><rect class="d" x="211.57" y="211.57" width="56.89" height="56.89"/><rect class="a" x="112.01" y="197.34" width="85.33" height="170.67"/><rect class="d" x="197.34" y="282.68" width="85.33" height="85.33"/><rect class="a" x="282.68" y="197.34" width="85.33" height="170.67"/><rect class="e" x="147.56" y="147.56" width="14.22" height="14.22"/><rect class="f" x="147.56" y="232.9" width="14.22" height="14.22"/><rect class="e" x="311.12" y="225.79" width="28.44" height="28.44"/><rect class="c" x="232.9" y="318.23" width="14.22" height="14.22"/><rect class="g" x="140.45" y="311.12" width="28.44" height="28.44"/><rect class="f" x="296.9" y="296.9" width="56.89" height="56.89"/></svg>