<svg xmlns="http://www.w3.org/2000/svg" viewBox="0 0 1025 400"><defs><style>.a{fill:#fff;}.b{fill:#282828;}.c{fill:#232d55;}.d{fill:#1eaadc;}.e{fill:#0a4178;}.f{fill:#007d50;}.g{fill:#ffdc05;}.h{fill:#919191;}</style></defs><title>talao_logotype_rvb</title><rect class="a" width="1025" height="400"/><path class="b" d="M447.12,319.62c-21.47,0-30.7-14.87-30.7-30.13V236H386.67V222.26h29.75V186.67h16v35.59h39.92V236H432.43v52c0,10.16,5.84,17.13,16.95,17.13,9.41,0,16.19-2.82,24.1-6.4v14.12A51.29,51.29,0,0,1,447.12,319.62Z"/><path class="b" d="M586.48,318.87c-8.48,0-14.12-6.4-14.12-14.5H572C566.33,314,553.9,320,540.53,320c-22.79,0-33-14.5-33-28.06,0-14.12,9.79-29.75,34.09-31.07l29.75-1.7v-7c0-4.7-.56-9.79-4.89-13.74-3.2-3-8.29-5.47-16-5.47-8.66,0-14.12,2.64-17.33,5.84a16.27,16.27,0,0,0-5.08,11.11H512.28c.19-8.09,3.77-14.5,8.85-19.58,6.59-6.59,17.7-10.55,29.38-10.55,18.46,0,29.38,8.48,33.9,18.83a33.89,33.89,0,0,1,2.82,14.13v46.14c0,5.08,2.45,6.4,5.65,6.4a23.42,23.42,0,0,0,4.15-.56v11.86A22.13,22.13,0,0,1,586.48,318.87ZM571.41,271.6l-26.36,1.51c-10.17.56-21.09,5.46-21.09,17.51,0,8.48,5.46,15.82,19,15.82,7.34,0,14.87-2.45,20-7.72a30.65,30.65,0,0,0,8.47-21.47Z"/><path class="b" d="M628.29,317.55V304h33.52V200h-30.7V186.67H678V304h33.33v13.56Z"/><path class="b" d="M820,318.87c-8.47,0-14.12-6.4-14.12-14.5h-.38C799.85,314,787.42,320,774.05,320c-22.79,0-32.95-14.5-32.95-28.06,0-14.12,9.79-29.75,34.08-31.07l29.76-1.7v-7c0-4.7-.57-9.79-4.9-13.74-3.2-3-8.29-5.47-16-5.47-8.66,0-14.12,2.64-17.32,5.84a16.24,16.24,0,0,0-5.09,11.11H745.8c.19-8.09,3.77-14.5,8.85-19.58,6.6-6.59,17.71-10.55,29.38-10.55,18.46,0,29.38,8.48,33.9,18.83a33.89,33.89,0,0,1,2.83,14.13v46.14c0,5.08,2.44,6.4,5.65,6.4a23.41,23.41,0,0,0,4.14-.56v11.86A22.11,22.11,0,0,1,820,318.87ZM804.94,271.6l-26.37,1.51c-10.17.56-21.09,5.46-21.09,17.51,0,8.48,5.46,15.82,19,15.82,7.34,0,14.88-2.45,20-7.72a30.66,30.66,0,0,0,8.48-21.47Z"/><path class="b" d="M930.55,308.51c-7,6.78-17.7,11.49-29.75,11.49s-23.17-4.71-30.14-11.49c-10.35-10.17-14.87-23.54-14.87-38.6s4.52-28.44,14.87-38.61c7-6.78,18.08-11.49,30.14-11.49s22.78,4.71,29.75,11.49c10.36,10.17,14.88,23.35,14.88,38.42S940.91,298.34,930.55,308.51Zm-12.24-68a26.51,26.51,0,0,0-35.41,0c-8.09,7.34-10.73,18.83-10.73,29.19s2.64,22.22,10.73,29.56a26.51,26.51,0,0,0,35.41,0c8.1-7.34,10.73-19,10.73-29.37S926.41,247.87,918.31,240.53Z"/><rect class="c" x="80" y="80" width="80" height="80"/><polygon class="d" points="320 80 160 80 160 240 240 240 240 160 320 160 320 80"/><rect class="e" x="173.33" y="173.33" width="53.33" height="53.33"/><rect class="a" x="80" y="160" width="80" height="160"/><rect class="e" x="160" y="240" width="80" height="80"/><rect class="a" x="240" y="160" width="80" height="160"/><rect class="f" x="113.33" y="113.33" width="13.33" height="13.33"/><rect class="g" x="113.33" y="193.33" width="13.33" height="13.33"/><rect class="f" x="266.67" y="186.67" width="26.67" height="26.67"/><rect class="d" x="193.33" y="273.33" width="13.33" height="13.33"/><rect class="h" x="106.67" y="266.67" width="26.67" height="26.67"/><rect class="g" x="253.33" y="253.33" width="53.33" height="53.33"/></svg>